# xmcd CD database file
#
# Track frame offsets:
#	150
#	16145
#	31452
#	51164
#	71748
#	89701
#	105741
#	117587
#	133994
#	150952
#	171178
#	194111
#
# Disc length: 2819 seconds
#
# Revision: 0
# Processed by: cddbd v1.5.2PL0 Copyright (c) Steve Scherf et al.
# Submitted via: CDex 1.51
#
DISCID=ae0b010c
DTITLE=Kenny Maines - Kenny Maines
DYEAR=2005
DGENRE=Country
TTITLE0=Hand Clappin'
TTITLE1=Crazy About You
TTITLE2=Another Man's Words
TTITLE3=Tennesee Stud
TTITLE4=So Easy
TTITLE5=Heartland
TTITLE6=Ain't Got You
TTITLE7=I'd Rather Be Dancing
TTITLE8=Muddy Road
TTITLE9=If I Could Find the Words
TTITLE10=In the Same Business
TTITLE11=Baby's Lullaby
EXTD=YEAR: 2005
EXTT0=
EXTT1=
EXTT2=
EXTT3=
EXTT4=
EXTT5=
EXTT6=
EXTT7=
EXTT8=
EXTT9=
EXTT10=
EXTT11=
PLAYORDER=
